<svg xmlns="http://www.w3.org/2000/svg" width="43.736" height="43.804" viewBox="0 0 43.736 43.804">
  <path id="path26" d="M106.159-797.417h0s-.277-.07-2.212-.532c-.66-.158-1-.22-1.289-.294a4.339,4.339,0,0,0-.342-.6,9.469,9.469,0,0,0-7.74-4.629,8.976,8.976,0,0,0-7.938,4.629c-.343.289-2.729,1.039-3.71,1.494a12.16,12.16,0,0,1,11.649-8.72A12,12,0,0,1,106.159-797.417ZM98.57-815.324h0a3.311,3.311,0,0,1,3.4-3.328,3.3,3.3,0,0,1,3.329,3.328A3.3,3.3,0,0,1,101.966-812,3.311,3.311,0,0,1,98.57-815.324Zm-14.513,0h0a3.338,3.338,0,0,1,3.329-3.328,3.31,3.31,0,0,1,3.4,3.328,3.31,3.31,0,0,1-3.4,3.328A3.338,3.338,0,0,1,84.058-815.324ZM94.576-790.7h0c-11.117,0-19.589-8.046-19.589-19.231,0-11.049,8.206-19.576,19.324-19.576a19.266,19.266,0,0,1,19.656,19.576C113.967-798.747,105.759-790.7,94.576-790.7Zm-.265-41.132a21.862,21.862,0,0,0-21.836,21.9,21.862,21.862,0,0,0,21.836,21.9,21.834,21.834,0,0,0,21.9-21.9,21.834,21.834,0,0,0-21.9-21.9h0" transform="translate(-72.475 831.834)" fill="#ee325d"/>
</svg>
