<svg xmlns="http://www.w3.org/2000/svg" width="43.869" height="43.803" viewBox="0 0 43.869 43.803">
  <path id="path14" d="M106.381-947.93h0A12.082,12.082,0,0,1,94.8-939.208a12.163,12.163,0,0,1-11.583-8.722,31.609,31.609,0,0,0,3.759,1.652,8.532,8.532,0,0,0,7.824,4.406c3.456.048,6.844-1.461,8.057-4.658A22.014,22.014,0,0,0,106.381-947.93Zm-7.855-8.72h0a3.353,3.353,0,0,1,3.329-3.4,3.411,3.411,0,0,1,3.4,3.4,3.354,3.354,0,0,1-3.4,3.328A3.3,3.3,0,0,1,98.527-956.649Zm-14.513,0h0a3.411,3.411,0,0,1,3.4-3.4,3.41,3.41,0,0,1,3.4,3.4,3.353,3.353,0,0,1-3.4,3.328A3.354,3.354,0,0,1,84.014-956.649Zm10.253,24.574h0c-11.051,0-19.427-8.066-19.427-19.182s8.376-19.649,19.427-19.649a19.22,19.22,0,0,1,19.577,19.649C113.845-940.141,105.45-932.075,94.267-932.075Zm0-41.084a21.918,21.918,0,0,0-21.9,21.9,21.919,21.919,0,0,0,21.9,21.9,21.89,21.89,0,0,0,21.966-21.9,21.89,21.89,0,0,0-21.966-21.9h0" transform="translate(-72.365 973.159)" fill="#368c0e"/>
</svg>
