<svg xmlns="http://www.w3.org/2000/svg" width="28.5" height="28.5" viewBox="0 0 28.5 28.5">
  <g id="Group_18690" data-name="Group 18690" transform="translate(-298.25 -364.25)">
    <g id="Group_18181" data-name="Group 18181" transform="translate(299 365)">
      <g id="Group_18161" data-name="Group 18161">
        <path id="Path_13353" data-name="Path 13353" d="M13.5,27A13.5,13.5,0,1,1,27,13.5,13.514,13.514,0,0,1,13.5,27Z" fill="none" stroke="#368c0e" stroke-width="1.5"/>
      </g>
      <g id="Group_18164" data-name="Group 18164" transform="translate(6.664 15.518)">
        <path id="Path_13359" data-name="Path 13359" d="M70.264,137.536a7.263,7.263,0,0,1-6.836-4.832l2.527.574c.51,1.446,2.775,2.418,4.308,2.418s3.8-.972,4.308-2.418L77.1,132.7A7.263,7.263,0,0,1,70.264,137.536Z" transform="translate(-63.428 -132.704)" fill="#368c0e"/>
      </g>
      <g id="Group_18165" data-name="Group 18165" transform="translate(8.348 8.348)">
        <path id="Path_13360" data-name="Path 13360" d="M75,75h3.625v3.625H75Z" transform="translate(-75 -75)" fill="#368c0e"/>
      </g>
      <g id="Group_18166" data-name="Group 18166" transform="translate(15.027 8.348)">
        <path id="Path_13361" data-name="Path 13361" d="M135,75h3.625v3.625H135Z" transform="translate(-135 -75)" fill="#368c0e"/>
      </g>
    </g>
  </g>
</svg>
