<svg id="Group_33" data-name="Group 33" xmlns="http://www.w3.org/2000/svg" xmlns:xlink="http://www.w3.org/1999/xlink" width="34.237" height="36.937" viewBox="0 0 34.237 36.937">
  <defs>
    <clipPath id="clip-path">
      <rect id="Rectangle_8" data-name="Rectangle 8" width="34.237" height="36.937" fill="none"/>
    </clipPath>
    <clipPath id="clip-path-3">
      <rect id="Rectangle_5" data-name="Rectangle 5" width="25.971" height="17.136" fill="none"/>
    </clipPath>
    <clipPath id="clip-path-4">
      <rect id="Rectangle_6" data-name="Rectangle 6" width="6.459" height="5.36" fill="none"/>
    </clipPath>
  </defs>
  <g id="Group_19" data-name="Group 19" clip-path="url(#clip-path)">
    <g id="Group_18" data-name="Group 18">
      <g id="Group_17" data-name="Group 17" clip-path="url(#clip-path)">
        <path id="Path_13" data-name="Path 13" d="M25.012,169.261A12.982,12.982,0,1,0,8.1,176.4a12.982,12.982,0,0,0,16.916-7.136" transform="translate(0 -140.42)" fill="#575757"/>
        <g id="Group_13" data-name="Group 13" transform="translate(0 19.8)" opacity="0.38" style="mix-blend-mode: multiply;isolation: isolate">
          <g id="Group_12" data-name="Group 12">
            <g id="Group_11" data-name="Group 11" clip-path="url(#clip-path-3)">
              <path id="Path_14" data-name="Path 14" d="M25.012,282.406a12.982,12.982,0,0,1-24.327-9.04,12.985,12.985,0,0,0,25.006,4.493q.149-.367.275-.738a12.938,12.938,0,0,1-.953,5.285" transform="translate(0 -273.366)" fill="#666"/>
            </g>
          </g>
        </g>
        <path id="Path_15" data-name="Path 15" d="M292.957,172.244l-.063.062-2.317,2.271a2.129,2.129,0,0,1-1.027-.108,4.067,4.067,0,0,1-2.125-1.715,5.219,5.219,0,0,1-.98-2.368,4.291,4.291,0,0,1,.061-1.067l.17-.073,3.138-1.353Z" transform="translate(-265.687 -155.731)" fill="#5b5b5b"/>
        <path id="Path_16" data-name="Path 16" d="M69.549,164.022a6.425,6.425,0,0,1,2.765-1.979,9.873,9.873,0,0,1,6.618-.085,9.082,9.082,0,0,1,2.946,1.683c.646.556,2.044,1.66,2.044,2.591,0,1.046-3.112-1.185-7.318-.66a12.2,12.2,0,0,0-7.565,4.27c-.822.87-.966-1.468-.953-1.8a6.774,6.774,0,0,1,1.463-4.016" transform="translate(-63.153 -149.735)" fill="#999"/>
        <g id="Group_16" data-name="Group 16" transform="translate(20.747 13.514)" opacity="0.38" style="mix-blend-mode: multiply;isolation: isolate">
          <g id="Group_15" data-name="Group 15">
            <g id="Group_14" data-name="Group 14" clip-path="url(#clip-path-4)">
              <path id="Path_17" data-name="Path 17" d="M292.893,189.638l-2.317,2.271a2.129,2.129,0,0,1-1.027-.108,4.067,4.067,0,0,1-2.124-1.715,5.218,5.218,0,0,1-.98-2.368,4.291,4.291,0,0,1,.061-1.067l.17-.073a4.758,4.758,0,0,0,2.358,2.432,1.969,1.969,0,0,0,2.352-.481Z" transform="translate(-286.434 -186.578)" fill="#6b6b6b"/>
            </g>
          </g>
        </g>
        <path id="Path_18" data-name="Path 18" d="M268.279,13.093c-.232-1.275-1.029-4.519-3.016-3.791a50.9,50.9,0,0,0-6.292,3.16c.343-.234,5.729-3.937,4.283-5.076A11.13,11.13,0,0,0,259.9,5.675c.146.019,3.519.46,3.618-.709a8.765,8.765,0,0,0-.926-3.287s2.942,4.283,5.677-.571c.289-.514-1.774,3.543.1,3.618,1.749.071,5.575-1.211,6.061-1.376-.569.2-5.719,2.09-5.037,3.776a4.416,4.416,0,0,0,1.719,2.082c-.728-.329-2.041-.692-2.507.672a7.473,7.473,0,0,0-.322,3.214" transform="translate(-240.213 -0.986)" fill="#ed922b"/>
        <path id="Path_19" data-name="Path 19" d="M268.279,13.093c-.232-1.275-1.029-4.519-3.016-3.791a50.9,50.9,0,0,0-6.292,3.16c.343-.234,5.729-3.937,4.283-5.076A11.13,11.13,0,0,0,259.9,5.675c.146.019,3.519.46,3.618-.709a8.765,8.765,0,0,0-.926-3.287s2.942,4.283,5.677-.571c.289-.514-1.774,3.543.1,3.618,1.749.071,5.575-1.211,6.061-1.376-.569.2-5.719,2.09-5.037,3.776a4.416,4.416,0,0,0,1.719,2.082c-.728-.329-2.041-.692-2.507.672A7.473,7.473,0,0,0,268.279,13.093Z" transform="translate(-240.213 -0.986)" fill="none" stroke="#ed1c24" stroke-miterlimit="10" stroke-width="0.5"/>
        <path id="Path_20" data-name="Path 20" d="M333.261,171.373a.325.325,0,0,1-.169.182.332.332,0,0,1-.145.031,3.169,3.169,0,0,1-2.272-1.443,4.354,4.354,0,0,1-.449-.658,2.863,2.863,0,0,1-.311-2.216.317.317,0,0,1,.367-.219,3.091,3.091,0,0,1,1.624,1.04,6.9,6.9,0,0,1,.957,1.386,2.864,2.864,0,0,1,.454,1.663,1.049,1.049,0,0,1-.055.234" transform="translate(-305.926 -154.945)" fill="#939393"/>
        <path id="Path_21" data-name="Path 21" d="M317.762,32.328s.648,1.742,2.263,1.465a5.408,5.408,0,0,0,1.989-.564s-2.45,1.3-2.666,2.544a3.677,3.677,0,0,0,.4,2.277s-1.143-1.911-2.219-1.8a13.7,13.7,0,0,0-3.277,1.3s2.038-1.515,1.67-2.055a3.637,3.637,0,0,0-1.482-.921s2.12.811,2.181-.144.034-2.9.034-2.9.277,1.615,1.111.794" transform="translate(-291.487 -29.25)" fill="#f1c640"/>
        <path id="Path_22" data-name="Path 22" d="M330.627,168.447a1.156,1.156,0,0,0-.4,1.039,2.863,2.863,0,0,1-.311-2.216.317.317,0,0,1,.367-.219,3.092,3.092,0,0,1,1.624,1.04,1.438,1.438,0,0,0-1.279.356" transform="translate(-305.927 -154.945)" fill="#b7b7b7"/>
        <path id="Path_23" data-name="Path 23" d="M163.018,166.173a3.532,3.532,0,0,1,3.57.572c.842.783-.538,2.545-2.623,2.456s-2.31-2.18-.947-3.028" transform="translate(-150.415 -153.885)" fill="#d3d3d3"/>
        <path id="Path_24" data-name="Path 24" d="M129.131,175.262a1.716,1.716,0,0,0,.667-1.642c-.12-.548-1.226-.4-1.721.494a.791.791,0,0,0,1.054,1.149" transform="translate(-118.663 -160.745)" fill="#d3d3d3"/>
        <path id="Path_25" data-name="Path 25" d="M345.131,82.7a4.116,4.116,0,0,1,2.534,1.7,2.377,2.377,0,0,1-.2,2.729,7.619,7.619,0,0,1-2.166,1.722,3.664,3.664,0,0,0-1.782,1.907,1.613,1.613,0,0,0,.883,2.054.153.153,0,0,0,.143-.267,1.562,1.562,0,0,1-.074-2.221,12.148,12.148,0,0,1,2.367-1.706,4.658,4.658,0,0,0,1.642-1.976,2.988,2.988,0,0,0-.336-2.7,4.637,4.637,0,0,0-2.787-1.827c-.384-.1-.611.474-.222.584" transform="translate(-318.562 -76.153)" fill="#4f4f4f"/>
      </g>
    </g>
  </g>
</svg>
