<svg xmlns="http://www.w3.org/2000/svg" width="43.736" height="43.804" viewBox="0 0 43.736 43.804">
  <path id="path26" d="M104.7-799.726H84.9v-3.547h19.8Zm-6.128-15.6h0a3.311,3.311,0,0,1,3.4-3.328,3.3,3.3,0,0,1,3.329,3.328A3.3,3.3,0,0,1,101.966-812,3.311,3.311,0,0,1,98.57-815.324Zm-14.513,0h0a3.338,3.338,0,0,1,3.329-3.328,3.31,3.31,0,0,1,3.4,3.328,3.31,3.31,0,0,1-3.4,3.328A3.338,3.338,0,0,1,84.058-815.324ZM94.576-790.7h0c-11.117,0-19.589-8.046-19.589-19.231,0-11.049,8.206-19.576,19.324-19.576a19.266,19.266,0,0,1,19.656,19.576C113.967-798.747,105.759-790.7,94.576-790.7Zm-.265-41.132a21.862,21.862,0,0,0-21.836,21.9,21.862,21.862,0,0,0,21.836,21.9,21.834,21.834,0,0,0,21.9-21.9,21.834,21.834,0,0,0-21.9-21.9h0" transform="translate(-72.475 831.834)" fill="#888d94"/>
</svg>
